<?xml version="1.0" encoding="UTF-8"?>
<!DOCTYPE svg PUBLIC "-//W3C//DTD SVG 1.1//EN" "http://www.w3.org/Graphics/SVG/1.1/DTD/svg11.dtd">
<!-- Creator: CorelDRAW X6 -->
<svg xmlns="http://www.w3.org/2000/svg" xml:space="preserve" width="2.33059in" height="1.60652in" version="1.1" style="shape-rendering:geometricPrecision; text-rendering:geometricPrecision; image-rendering:optimizeQuality; fill-rule:evenodd; clip-rule:evenodd"
viewBox="0 0 594 409"
 xmlns:xlink="http://www.w3.org/1999/xlink">
 <defs>
  <style type="text/css">
   <![CDATA[
    .fil3 {fill:#FFFFFF}
    .fil0 {fill:#FFFFFF}
    .fil1 {fill:#FFFFFF}
    .fil2 {fill:#FFFFFF}
   ]]>
  </style>
 </defs>
 <g id="Layer_x0020_1">
  <metadata id="CorelCorpID_0Corel-Layer"/>
  <path class="fil0" d="M293 41c19,11 27,0 46,-13 23,-15 26,-2 54,2 -40,51 -27,-17 -66,124 -14,51 -28,103 -43,153 34,-24 50,-86 68,-135 12,-32 52,-124 53,-151 -17,-4 -45,-16 -62,-10 -16,6 -39,19 -50,30z"/>
  <path class="fil0" d="M24 122l0 -21c2,1 68,81 67,106 -1,22 3,-11 -1,5l-19 -16c5,30 31,32 31,80 -2,-2 -5,-3 -7,-5l12 25c2,-21 0,-40 -7,-57 -6,-16 -6,-38 -6,-57 -11,-13 -17,-63 -18,-78 43,-13 43,-15 42,-31l-52 19 6 45c-36,-52 -61,-49 -67,-116 63,-14 38,-15 116,36 9,6 27,10 6,-6l-51 -35c-37,-26 -28,-15 -77,-4 1,31 13,86 24,110z"/>
  <path class="fil0" d="M96 182c24,44 2,103 48,162 4,-27 -7,-102 -9,-133 -3,-57 4,-56 -48,-94l10 66z"/>
  <path class="fil0" d="M276 189c2,39 -22,105 -25,149 26,-21 31,-55 42,-94 8,-30 25,-76 29,-105l-27 -13c-3,20 4,10 17,25 -8,5 -12,11 -17,17l-14 15c0,1 -1,2 -2,2l-3 4z"/>
  <path class="fil0" d="M190 326c3,-59 5,-57 -34,-102 -1,-1 -5,-5 -5,-6 -4,-4 -2,-2 -7,-6 1,25 -1,51 11,69 8,13 25,34 36,44z"/>
  <path class="fil0" d="M211 318c19,-30 44,-15 58,-108 -15,11 -29,27 -44,40 -12,10 -12,10 -13,30 -1,12 -2,25 -1,37z"/>
  <path class="fil0" d="M205 408c28,-27 44,-82 46,-120 -2,2 -38,38 -40,41 -9,18 -6,56 -6,79z"/>
  <path class="fil0" d="M201 213c5,-47 7,-37 -20,-60 -16,-14 -29,-29 -45,-41 -2,48 16,49 66,101z"/>
  <path class="fil0" d="M319 308c27,0 116,-30 138,-30 20,-1 111,30 137,31 -11,-5 -130,-44 -137,-44 -9,0 -124,38 -138,44z"/>
  <path class="fil0" d="M186 404c0,-18 3,-55 -3,-70l-26 -38c-3,-4 -3,-3 -6,-6 0,51 1,75 35,114z"/>
  <path class="fil0" d="M143 86c4,8 1,4 7,9 75,-31 60,-28 129,8l12 -13 -73 -34c-9,-2 -67,23 -75,30z"/>
  <path class="fil0" d="M194 257c1,-44 7,-32 -17,-58 -12,-13 -23,-26 -36,-38 -15,30 37,83 53,96z"/>
  <path class="fil0" d="M276 189l3 -27c-11,10 -30,24 -42,34 -24,20 -23,15 -25,54l64 -61z"/>
  <path class="fil0" d="M217 202c13,-10 25,-21 39,-33 17,-14 29,-15 31,-47 -13,7 -30,22 -43,32 -19,15 -31,15 -27,48z"/>
  <path class="fil0" d="M204 163c2,-20 -9,-21 -41,-46 -3,-2 -5,-4 -8,-6 -10,-7 -3,-3 -12,-7 3,16 47,48 61,59z"/>
  <path class="fil0" d="M220 162c9,-8 22,-16 33,-24 23,-17 29,-16 28,-30 -35,25 -64,30 -61,54z"/>
  <path class="fil0" d="M70 227c-2,-12 -23,-47 -31,-64l5 -14 -21 -28c1,12 11,47 16,58l30 47z"/>
  <path class="fil1" d="M70 227c3,17 5,14 11,20 -3,-13 -3,-12 -11,-20z"/>
  <path class="fil2" d="M71 196c-1,-2 3,-3 -8,-13 3,12 -1,6 8,13z"/>
  <path class="fil1" d="M60 179l-8 -13c1,4 0,5 8,13z"/>
  <path class="fil1" d="M95 271c-1,-4 2,-3 -8,-13l8 13z"/>

 </g>
</svg>
